<?xml version="1.0" standalone="no"?>
<!DOCTYPE svg PUBLIC "-//W3C//DTD SVG 20010904//EN"
 "http://www.w3.org/TR/2001/REC-SVG-20010904/DTD/svg10.dtd">
<svg version="1.0" xmlns="http://www.w3.org/2000/svg"
 width="1000.000000pt" height="1000.000000pt" viewBox="0 0 1000.000000 1000.000000"
 preserveAspectRatio="xMidYMid meet">
<metadata>
Created by potrace 1.14, written by Peter Selinger 2001-2017
</metadata>
<g transform="translate(0.000000,1000.000000) scale(0.100000,-0.100000)"
fill="#000000" stroke="none">
<path d="M5146 7260 c-256 -30 -483 -113 -701 -258 -118 -78 -153 -106 -257
-208 -80 -79 -88 -84 -92 -62 -6 25 -56 428 -56 447 0 8 -80 11 -290 11 l-290
0 0 -2205 0 -2205 330 0 330 0 0 931 0 930 49 -59 c97 -116 243 -228 400 -307
103 -51 288 -111 405 -131 139 -23 457 -15 600 16 375 80 673 254 881 513 211
262 317 559 332 932 20 508 -135 945 -446 1255 -157 156 -315 255 -523 328
-183 65 -469 95 -672 72z m157 -585 c373 -65 680 -352 778 -725 27 -106 38
-334 19 -447 -32 -203 -123 -376 -280 -534 -216 -218 -487 -322 -797 -307
-397 20 -723 264 -861 643 -25 67 -26 80 -30 343 -3 258 -2 278 18 345 111
366 389 613 767 681 104 19 281 19 386 1z"/>
</g>
</svg>
